<mxfile host="app.diagrams.net" modified="2023-05-19T13:09:43.227Z" agent="Mozilla/5.0 (Windows NT 10.0; Win64; x64) AppleWebKit/537.36 (KHTML, like Gecko) Chrome/113.0.0.0 Safari/537.36" etag="0S2cn4Eh2K9Zm2h5KVTN" version="21.3.2" type="device">
  <diagram name="Página-1" id="DxFsiiP1qf36tBy92FNg">
    <mxGraphModel dx="1050" dy="483" grid="1" gridSize="10" guides="1" tooltips="1" connect="1" arrows="1" fold="1" page="1" pageScale="1" pageWidth="827" pageHeight="1169" math="0" shadow="0">
      <root>
        <mxCell id="0" />
        <mxCell id="1" parent="0" />
        <mxCell id="LBw9qK8S5x93L0y56TWW-4" style="edgeStyle=orthogonalEdgeStyle;rounded=0;orthogonalLoop=1;jettySize=auto;html=1;exitX=0.5;exitY=1;exitDx=0;exitDy=0;exitPerimeter=0;entryX=0.5;entryY=0;entryDx=0;entryDy=0;" edge="1" parent="1" source="LBw9qK8S5x93L0y56TWW-1" target="LBw9qK8S5x93L0y56TWW-3">
          <mxGeometry relative="1" as="geometry" />
        </mxCell>
        <mxCell id="LBw9qK8S5x93L0y56TWW-1" value="" style="strokeWidth=2;html=1;shape=mxgraph.flowchart.start_2;whiteSpace=wrap;fillColor=#000000;" vertex="1" parent="1">
          <mxGeometry x="190" y="60" width="30" height="30" as="geometry" />
        </mxCell>
        <mxCell id="LBw9qK8S5x93L0y56TWW-2" value="Precondicion - Tener conexión a internet" style="text;html=1;strokeColor=none;fillColor=none;align=center;verticalAlign=middle;whiteSpace=wrap;rounded=0;" vertex="1" parent="1">
          <mxGeometry x="130" y="10" width="150" height="30" as="geometry" />
        </mxCell>
        <mxCell id="LBw9qK8S5x93L0y56TWW-6" style="edgeStyle=orthogonalEdgeStyle;rounded=0;orthogonalLoop=1;jettySize=auto;html=1;exitX=0.5;exitY=1;exitDx=0;exitDy=0;" edge="1" parent="1" source="LBw9qK8S5x93L0y56TWW-3" target="LBw9qK8S5x93L0y56TWW-5">
          <mxGeometry relative="1" as="geometry" />
        </mxCell>
        <mxCell id="LBw9qK8S5x93L0y56TWW-3" value="Acceder a la Web de Registro" style="rounded=1;whiteSpace=wrap;html=1;" vertex="1" parent="1">
          <mxGeometry x="145" y="140" width="120" height="60" as="geometry" />
        </mxCell>
        <mxCell id="LBw9qK8S5x93L0y56TWW-8" style="edgeStyle=orthogonalEdgeStyle;rounded=0;orthogonalLoop=1;jettySize=auto;html=1;exitX=1;exitY=0.5;exitDx=0;exitDy=0;entryX=0;entryY=0.5;entryDx=0;entryDy=0;" edge="1" parent="1" source="LBw9qK8S5x93L0y56TWW-5" target="LBw9qK8S5x93L0y56TWW-7">
          <mxGeometry relative="1" as="geometry" />
        </mxCell>
        <mxCell id="LBw9qK8S5x93L0y56TWW-5" value="Rellenar Datos Obligatorios&amp;nbsp;" style="rounded=1;whiteSpace=wrap;html=1;" vertex="1" parent="1">
          <mxGeometry x="145" y="250" width="120" height="60" as="geometry" />
        </mxCell>
        <mxCell id="LBw9qK8S5x93L0y56TWW-9" style="edgeStyle=orthogonalEdgeStyle;rounded=0;orthogonalLoop=1;jettySize=auto;html=1;exitX=0.5;exitY=1;exitDx=0;exitDy=0;entryX=0.5;entryY=1;entryDx=0;entryDy=0;" edge="1" parent="1" source="LBw9qK8S5x93L0y56TWW-7" target="LBw9qK8S5x93L0y56TWW-5">
          <mxGeometry relative="1" as="geometry" />
        </mxCell>
        <mxCell id="LBw9qK8S5x93L0y56TWW-18" style="edgeStyle=orthogonalEdgeStyle;rounded=0;orthogonalLoop=1;jettySize=auto;html=1;exitX=0.5;exitY=0;exitDx=0;exitDy=0;entryX=0;entryY=0.5;entryDx=0;entryDy=0;entryPerimeter=0;" edge="1" parent="1" source="LBw9qK8S5x93L0y56TWW-7" target="LBw9qK8S5x93L0y56TWW-13">
          <mxGeometry relative="1" as="geometry" />
        </mxCell>
        <mxCell id="LBw9qK8S5x93L0y56TWW-7" value="Datos correctos" style="rhombus;whiteSpace=wrap;html=1;" vertex="1" parent="1">
          <mxGeometry x="374" y="240" width="80" height="80" as="geometry" />
        </mxCell>
        <mxCell id="LBw9qK8S5x93L0y56TWW-10" value="No" style="text;html=1;align=center;verticalAlign=middle;resizable=0;points=[];autosize=1;strokeColor=none;fillColor=none;" vertex="1" parent="1">
          <mxGeometry x="290" y="340" width="40" height="30" as="geometry" />
        </mxCell>
        <mxCell id="LBw9qK8S5x93L0y56TWW-25" style="edgeStyle=orthogonalEdgeStyle;rounded=0;orthogonalLoop=1;jettySize=auto;html=1;exitX=0.5;exitY=1;exitDx=0;exitDy=0;entryX=1;entryY=0.5;entryDx=0;entryDy=0;entryPerimeter=0;" edge="1" parent="1" source="LBw9qK8S5x93L0y56TWW-11" target="LBw9qK8S5x93L0y56TWW-24">
          <mxGeometry relative="1" as="geometry" />
        </mxCell>
        <mxCell id="LBw9qK8S5x93L0y56TWW-11" value="Envío de email de confirmación" style="rounded=1;whiteSpace=wrap;html=1;" vertex="1" parent="1">
          <mxGeometry x="700" y="290" width="120" height="60" as="geometry" />
        </mxCell>
        <mxCell id="LBw9qK8S5x93L0y56TWW-16" style="edgeStyle=orthogonalEdgeStyle;rounded=0;orthogonalLoop=1;jettySize=auto;html=1;exitX=1;exitY=0;exitDx=0;exitDy=0;exitPerimeter=0;entryX=0;entryY=0.5;entryDx=0;entryDy=0;" edge="1" parent="1" source="LBw9qK8S5x93L0y56TWW-13" target="LBw9qK8S5x93L0y56TWW-14">
          <mxGeometry relative="1" as="geometry" />
        </mxCell>
        <mxCell id="LBw9qK8S5x93L0y56TWW-17" style="edgeStyle=orthogonalEdgeStyle;rounded=0;orthogonalLoop=1;jettySize=auto;html=1;exitX=1;exitY=1;exitDx=0;exitDy=0;exitPerimeter=0;entryX=0;entryY=0.5;entryDx=0;entryDy=0;" edge="1" parent="1" source="LBw9qK8S5x93L0y56TWW-13" target="LBw9qK8S5x93L0y56TWW-15">
          <mxGeometry relative="1" as="geometry" />
        </mxCell>
        <mxCell id="LBw9qK8S5x93L0y56TWW-13" value="" style="strokeWidth=2;html=1;shape=mxgraph.flowchart.annotation_2;align=left;labelPosition=right;pointerEvents=1;" vertex="1" parent="1">
          <mxGeometry x="440" y="110" width="50" height="100" as="geometry" />
        </mxCell>
        <mxCell id="LBw9qK8S5x93L0y56TWW-20" style="edgeStyle=orthogonalEdgeStyle;rounded=0;orthogonalLoop=1;jettySize=auto;html=1;exitX=1;exitY=0.5;exitDx=0;exitDy=0;entryX=1;entryY=1;entryDx=0;entryDy=0;entryPerimeter=0;" edge="1" parent="1" source="LBw9qK8S5x93L0y56TWW-14" target="LBw9qK8S5x93L0y56TWW-19">
          <mxGeometry relative="1" as="geometry">
            <Array as="points">
              <mxPoint x="670" y="110" />
              <mxPoint x="670" y="110" />
            </Array>
          </mxGeometry>
        </mxCell>
        <mxCell id="LBw9qK8S5x93L0y56TWW-14" value="Elección &quot;Entrenador&quot;" style="rounded=1;whiteSpace=wrap;html=1;" vertex="1" parent="1">
          <mxGeometry x="520" y="80" width="120" height="60" as="geometry" />
        </mxCell>
        <mxCell id="LBw9qK8S5x93L0y56TWW-21" style="edgeStyle=orthogonalEdgeStyle;rounded=0;orthogonalLoop=1;jettySize=auto;html=1;exitX=1;exitY=0.5;exitDx=0;exitDy=0;entryX=1;entryY=0;entryDx=0;entryDy=0;entryPerimeter=0;" edge="1" parent="1" source="LBw9qK8S5x93L0y56TWW-15" target="LBw9qK8S5x93L0y56TWW-19">
          <mxGeometry relative="1" as="geometry">
            <Array as="points">
              <mxPoint x="670" y="210" />
              <mxPoint x="670" y="210" />
            </Array>
          </mxGeometry>
        </mxCell>
        <mxCell id="LBw9qK8S5x93L0y56TWW-15" value="Elección &quot;Usuario&quot;" style="rounded=1;whiteSpace=wrap;html=1;" vertex="1" parent="1">
          <mxGeometry x="520" y="180" width="120" height="60" as="geometry" />
        </mxCell>
        <mxCell id="LBw9qK8S5x93L0y56TWW-23" style="edgeStyle=orthogonalEdgeStyle;rounded=0;orthogonalLoop=1;jettySize=auto;html=1;exitX=0;exitY=0.5;exitDx=0;exitDy=0;exitPerimeter=0;entryX=0.5;entryY=0;entryDx=0;entryDy=0;" edge="1" parent="1" source="LBw9qK8S5x93L0y56TWW-19" target="LBw9qK8S5x93L0y56TWW-11">
          <mxGeometry relative="1" as="geometry" />
        </mxCell>
        <mxCell id="LBw9qK8S5x93L0y56TWW-19" value="" style="strokeWidth=2;html=1;shape=mxgraph.flowchart.annotation_2;align=left;labelPosition=right;pointerEvents=1;rotation=-180;" vertex="1" parent="1">
          <mxGeometry x="680" y="110" width="50" height="100" as="geometry" />
        </mxCell>
        <mxCell id="LBw9qK8S5x93L0y56TWW-27" style="edgeStyle=orthogonalEdgeStyle;rounded=0;orthogonalLoop=1;jettySize=auto;html=1;exitX=0;exitY=0.5;exitDx=0;exitDy=0;exitPerimeter=0;entryX=1;entryY=0.5;entryDx=0;entryDy=0;" edge="1" parent="1" source="LBw9qK8S5x93L0y56TWW-24" target="LBw9qK8S5x93L0y56TWW-26">
          <mxGeometry relative="1" as="geometry" />
        </mxCell>
        <mxCell id="LBw9qK8S5x93L0y56TWW-29" style="edgeStyle=orthogonalEdgeStyle;rounded=0;orthogonalLoop=1;jettySize=auto;html=1;exitX=0.5;exitY=1;exitDx=0;exitDy=0;exitPerimeter=0;entryX=0;entryY=0.5;entryDx=0;entryDy=0;" edge="1" parent="1" source="LBw9qK8S5x93L0y56TWW-24" target="LBw9qK8S5x93L0y56TWW-3">
          <mxGeometry relative="1" as="geometry" />
        </mxCell>
        <mxCell id="LBw9qK8S5x93L0y56TWW-24" value="Usuario Confirma mediante e-mail en 24 horas" style="strokeWidth=2;html=1;shape=mxgraph.flowchart.decision;whiteSpace=wrap;" vertex="1" parent="1">
          <mxGeometry x="505" y="340" width="145" height="130" as="geometry" />
        </mxCell>
        <mxCell id="LBw9qK8S5x93L0y56TWW-26" value="Registro completo" style="rounded=1;whiteSpace=wrap;html=1;" vertex="1" parent="1">
          <mxGeometry x="300" y="375" width="120" height="60" as="geometry" />
        </mxCell>
        <mxCell id="LBw9qK8S5x93L0y56TWW-28" value="Yes" style="text;html=1;align=center;verticalAlign=middle;resizable=0;points=[];autosize=1;strokeColor=none;fillColor=none;" vertex="1" parent="1">
          <mxGeometry x="445" y="375" width="40" height="30" as="geometry" />
        </mxCell>
        <mxCell id="LBw9qK8S5x93L0y56TWW-30" value="No" style="text;html=1;align=center;verticalAlign=middle;resizable=0;points=[];autosize=1;strokeColor=none;fillColor=none;" vertex="1" parent="1">
          <mxGeometry x="320" y="488" width="40" height="30" as="geometry" />
        </mxCell>
      </root>
    </mxGraphModel>
  </diagram>
</mxfile>
